name C:\Users\u0101727\Documents\MyRepositories\paper-ad\predictivesimulations_2d/Results/PredSim_2D/IK_c10.mot
datacolumns 11
datarows 47
range 0.00000000 0.44131796
endheader
time	pelvis_tilt	pelvis_tx	pelvis_ty	hip_flexion_l	hip_flexion_r	knee_angle_l	knee_angle_r	ankle_angle_l	ankle_angle_r	lumbar_extension	
          0.00000000	        -15.08142041	          0.00000000	          0.88369168	          0.90364766	         38.02378507	        -16.22829020	        -10.57032511	          5.79203520	         13.83380743	          9.57157911	
          0.00959387	        -15.04338260	          0.01477864	          0.88290727	          0.81003107	         37.53889939	        -17.72233592	         -9.96487384	          4.59137189	         13.38532847	          9.66848895	
          0.01918774	        -14.99428951	          0.02982069	          0.88207227	          0.79517010	         36.95880269	        -19.38389791	         -9.64538672	          3.28679624	         12.88477930	          9.77843078	
          0.02878161	        -14.93670199	          0.04510910	          0.88121001	          0.86630968	         36.21544783	        -21.20982526	         -9.73235282	          1.85819291	         12.33008318	          9.90538118	
          0.03837547	        -14.87882799	          0.06045799	          0.88044734	          1.02808125	         35.35202724	        -23.18151008	        -10.04618318	          0.39089981	         11.76055082	         10.03990879	
          0.04796934	        -14.83163915	          0.07552669	          0.88001354	          1.30733641	         34.49373094	        -25.20658322	        -10.32603993	         -0.89329447	         11.21009959	         10.15876613	
          0.05756321	        -14.80370345	          0.09006806	          0.88016991	          1.73233319	         33.67777360	        -27.14484374	        -10.58398018	         -1.89633143	         10.67862394	         10.24803495	
          0.06715708	        -14.79737174	          0.10401905	          0.88107202	          2.29898079	         32.90660472	        -28.93359349	        -10.81484528	         -2.64765161	         10.18079800	         10.30657510	
          0.07675095	        -14.80795997	          0.11746287	          0.88267922	          2.99051486	         32.16169495	        -30.59352165	        -11.00662809	         -3.15665987	          9.73291310	         10.34053349	
          0.08634482	        -14.82887356	          0.13052374	          0.88478196	          3.78639150	         31.42192432	        -32.15374356	        -11.15040863	         -3.43608534	          9.34647185	         10.35693856	
          0.09593869	        -14.85474515	          0.14330913	          0.88714786	          4.67104560	         30.67050000	        -33.63184524	        -11.23940415	         -3.50150518	          9.02777149	         10.36110764	
          0.10553255	        -14.88213675	          0.15589333	          0.88959429	          5.63244584	         29.89797767	        -35.03629304	        -11.27170292	         -3.36794967	          8.77844228	         10.35624190	
          0.11512642	        -14.90915463	          0.16832332	          0.89199767	          6.66158087	         29.09982607	        -36.36841416	        -11.24773868	         -3.05172581	          8.59747831	         10.34410133	
          0.12472029	        -14.93483564	          0.18062918	          0.89427881	          7.75104214	         28.27449388	        -37.62510087	        -11.16951407	         -2.56959419	          8.48226336	         10.32569449	
          0.13431416	        -14.95869231	          0.19283121	          0.89638732	          8.89464927	         27.42235337	        -38.80146451	        -11.04050535	         -1.93843498	          8.42905731	         10.30163866	
          0.14390803	        -14.98045871	          0.20494450	          0.89829075	         10.08685519	         26.54505486	        -39.89141281	        -10.86555418	         -1.17519978	          8.43332023	         10.27238512	
          0.15350190	        -14.99996342	          0.21698145	          0.89996814	         11.32230333	         25.64519039	        -40.88819217	        -10.65069649	         -0.29705466	          8.48992538	         10.23833924	
          0.16309577	        -15.01708364	          0.22895295	          0.90140684	         12.59558334	         24.72606781	        -41.78462795	        -10.40293595	          0.67861146	          8.59332559	         10.19991462	
          0.17268963	        -15.03173537	          0.24086855	          0.90260194	         13.90128456	         23.79161397	        -42.57311435	        -10.13023228	          1.73422938	          8.73771585	         10.15751278	
          0.18228350	        -15.04389868	          0.25273583	          0.90355670	         15.23444053	         22.84630253	        -43.24550676	         -9.84048060	          2.85212920	          8.91723492	         10.11144433	
          0.19187737	        -15.05369313	          0.26456208	          0.90428166	         16.58910978	         21.89406797	        -43.79428369	         -9.54077910	          4.01449734	          9.12545691	         10.06217829	
          0.20147124	        -15.06128433	          0.27635365	          0.90479364	         17.95940383	         20.93902295	        -44.21178507	         -9.23861621	          5.20348087	          9.35472427	         10.01015603	
          0.21106511	        -15.06681232	          0.28811609	          0.90511328	         19.33983213	         19.98573722	        -44.49021471	         -8.94184937	          6.40126104	          9.59693004	          9.95571926	
          0.22065898	        -15.07042203	          0.29985544	          0.90526187	         20.72392954	         19.03899626	        -44.62261029	         -8.65881890	          7.59004548	          9.84408329	          9.89924818	
          0.23025285	        -15.07232805	          0.31157876	          0.90525956	         22.10474504	         18.10213196	        -44.60334747	         -8.39532694	          8.75215680	         10.08876913	          9.84127037	
          0.23984671	        -15.07284406	          0.32329441	          0.90512439	         23.47538854	         17.17599275	        -44.42836605	         -8.15272326	          9.87022153	         10.32428974	          9.78252483	
          0.24944058	        -15.07225317	          0.33501124	          0.90487184	         24.82797980	         16.26192243	        -44.09571538	         -7.93369183	         10.92750034	         10.54383079	          9.72375362	
          0.25903445	        -15.07079772	          0.34673749	          0.90451504	         26.15454980	         15.36207224	        -43.60446243	         -7.74185780	         11.90855392	         10.74125360	          9.66557734	
          0.26862832	        -15.06871886	          0.35848224	          0.90406476	         27.44630132	         14.47803652	        -42.95760775	         -7.58027329	         12.79999238	         10.91185851	          9.60873258	
          0.27822219	        -15.06627069	          0.37025401	          0.90353020	         28.69518540	         13.61076446	        -42.15972196	         -7.45102935	         13.59159189	         11.05262989	          9.55391412	
          0.28781606	        -15.06371519	          0.38205941	          0.90291958	         29.89504249	         12.76111461	        -41.21515353	         -7.35518764	         14.27728025	         11.16239472	          9.50160774	
          0.29740993	        -15.06128904	          0.39390478	          0.90223956	         31.04016853	         11.92979585	        -40.13064288	         -7.29442008	         14.85546797	         11.24183268	          9.45225552	
          0.30700380	        -15.05921183	          0.40579447	          0.90149563	         32.12762063	         11.11713310	        -38.91169919	         -7.26964217	         15.32899137	         11.29373380	          9.40604589	
          0.31659766	        -15.05769732	          0.41773209	          0.90069174	         33.15604140	         10.32301886	        -37.56329951	         -7.28125650	         15.70413832	         11.32255380	          9.36304782	
          0.32619153	        -15.05696148	          0.42972096	          0.89982997	         34.12485399	          9.54719539	        -36.09083316	         -7.32926076	         15.98928079	         11.33364014	          9.32323585	
          0.33578540	        -15.05728808	          0.44176561	          0.89891057	         35.03254597	          8.78906201	        -34.50175699	         -7.41310386	         16.19355998	         11.33229192	          9.28668551	
          0.34537927	        -15.05907292	          0.45387247	          0.89793248	         35.87559110	          8.04758016	        -32.80366097	         -7.53172546	         16.32608873	         11.32212200	          9.25370809	
          0.35497314	        -15.06264218	          0.46604963	          0.89689457	         36.64940159	          7.32238889	        -31.00806049	         -7.68537742	         16.39564182	         11.30397705	          9.22468656	
          0.36456701	        -15.06807130	          0.47830899	          0.89579944	         37.34727057	          6.61437646	        -29.14127482	         -7.87768788	         16.41035590	         11.27630705	          9.20020726	
          0.37416088	        -15.07539523	          0.49066876	          0.89465940	         37.95618329	          5.92556277	        -27.23754598	         -8.11486460	         16.37751029	         11.23313871	          9.18157375	
          0.38375474	        -15.08464125	          0.50315035	          0.89349606	         38.46032476	          5.25909636	        -25.32905663	         -8.40401864	         16.30349595	         11.16210105	          9.17050669	
          0.39334861	        -15.09549150	          0.51577251	          0.89233195	         38.85029773	          4.61938212	        -23.44359750	         -8.75361445	         16.19370498	         11.04690744	          9.16818824	
          0.40294248	        -15.10714945	          0.52854979	          0.89118507	         39.12604359	          4.01165489	        -21.60306919	         -9.17345953	         16.05226718	         10.87102886	          9.17502146	
          0.41253635	        -15.11839999	          0.54149503	          0.89006973	         39.29447739	          3.44120144	        -19.82903376	         -9.67388427	         15.88178687	         10.62020513	          9.19093236	
          0.42213022	        -15.12801903	          0.55462212	          0.88899813	         39.36280549	          2.91293222	        -18.13621200	        -10.26461987	         15.68345991	         10.28156825	          9.21601120	
          0.43172409	        -15.13486170	          0.56794553	          0.88797946	         39.33786644	          2.43127417	        -16.53640796	        -10.95422147	         15.45717805	          9.84293901	          9.25049750	
          0.44131796	        -15.13767338	          0.58147944	          0.88701901	         39.22727544	          2.00083405	        -15.04670138	        -11.75167089	         15.20165035	          9.29346436	          9.29453055	
